<?xml version="1.0" encoding="UTF-8" standalone="no"?>
<!-- Created with Inkscape (http://www.inkscape.org/) -->

<svg
   xmlns:dc="http://purl.org/dc/elements/1.1/"
   xmlns:cc="http://creativecommons.org/ns#"
   xmlns:rdf="http://www.w3.org/1999/02/22-rdf-syntax-ns#"
   xmlns:svg="http://www.w3.org/2000/svg"
   xmlns="http://www.w3.org/2000/svg"
   xmlns:sodipodi="http://sodipodi.sourceforge.net/DTD/sodipodi-0.dtd"
   xmlns:inkscape="http://www.inkscape.org/namespaces/inkscape"
   width="744.09448819"
   height="1052.3622047"
   id="svg2"
   version="1.1"
   inkscape:version="0.48.2 r9819"
   sodipodi:docname="Lab-room-peninsula-9.4deg.svg">
  <defs
     id="defs4" />
  <sodipodi:namedview
     id="base"
     pagecolor="#ffffff"
     bordercolor="#666666"
     borderopacity="1.0"
     inkscape:pageopacity="0.0"
     inkscape:pageshadow="2"
     inkscape:zoom="1.979899"
     inkscape:cx="172.00847"
     inkscape:cy="918.89432"
     inkscape:document-units="px"
     inkscape:current-layer="layer1"
     showgrid="false"
     inkscape:window-width="1600"
     inkscape:window-height="838"
     inkscape:window-x="-8"
     inkscape:window-y="-8"
     inkscape:window-maximized="1" />
  <metadata
     id="metadata7">
    <rdf:RDF>
      <cc:Work
         rdf:about="">
        <dc:format>image/svg+xml</dc:format>
        <dc:type
           rdf:resource="http://purl.org/dc/dcmitype/StillImage" />
        <dc:title></dc:title>
      </cc:Work>
    </rdf:RDF>
  </metadata>
  <g
     inkscape:label="Layer 1"
     inkscape:groupmode="layer"
     id="layer1">
    <path
       style="fill:none;stroke:#000000;stroke-width:1px;stroke-linecap:butt;stroke-linejoin:miter;stroke-opacity:1"
       d="m 28.61141,88.028466 38.450468,-11.025494 16.53824,57.675698 39.137082,-11.22238 -16.53824,-57.675697 39.13708,-11.222376 16.53824,57.675693 39.13709,-11.22237 -16.34136,-56.989087 39.13709,-11.222379 15.75071,54.929243 37.76384,-10.82861 -16.53824,-57.675704 48.05826,-13.9564876 52.1224,181.7724246 -21.32689,6.11539 -5.51274,-19.22524 -39.13708,11.22238 5.51275,19.22523 -39.82371,11.41927 -5.90652,-20.59847 -39.13707,11.22238 5.51274,19.22523 -87.88678,25.20113 -5.70963,-19.91184 -9.61262,2.75637 5.70963,19.91185 -29.524464,8.466 -5.512748,-19.22523 -19.225233,5.51274 L 22.456481,89.886248 z"
       id="path2985"
       inkscape:connector-curvature="0"
       sodipodi:nodetypes="cccccccccccccccccccccccccccccccc" />
    <path
       style="fill:none;stroke:#000000;stroke-width:1px;stroke-linecap:butt;stroke-linejoin:miter;stroke-opacity:1"
       d="M 66.726889,77.572327 66.676817,77.397704 100.0195,193.67747 139.34585,182.40082 103.00998,55.682581 63.198122,67.098447 z"
       id="path2987"
       inkscape:connector-curvature="0"
       sodipodi:nodetypes="ccccccc" />
    <path
       style="fill:none;stroke:#000000;stroke-width:1px;stroke-linecap:butt;stroke-linejoin:miter;stroke-opacity:1"
       d="M 142.31767,45.25706 142.2676,45.082437 178.74268,172.28619 218.06903,161.00954 181.59395,33.805788 141.78209,45.221653 z"
       id="path2987-1"
       inkscape:connector-curvature="0"
       sodipodi:nodetypes="ccccccc" />
    <path
       style="fill:none;stroke:#000000;stroke-width:1px;stroke-linecap:butt;stroke-linejoin:miter;stroke-opacity:1"
       d="m 243.48799,100.31582 -0.0501,-0.17462 13.9914,48.79381 39.32635,-11.27665 -37.03021,-127.307288 -39.32634,11.276647 z"
       id="path2987-7"
       inkscape:connector-curvature="0"
       sodipodi:nodetypes="ccccccc" />
    <path
       style="fill:none;stroke:#000000;stroke-width:1px;stroke-linecap:butt;stroke-linejoin:miter;stroke-opacity:1"
       d="m 67.049082,70.479855 34.330768,-9.84419 34.11673,118.979155 -33.64416,9.6473 z"
       id="path3014"
       inkscape:connector-curvature="0"
       sodipodi:nodetypes="ccccc" />
    <path
       style="fill:none;stroke:#000000;stroke-width:1px;stroke-linecap:butt;stroke-linejoin:miter;stroke-opacity:1"
       d="m 144.6305,47.960995 34.33078,-9.844192 34.46477,120.192927 -33.64416,9.64731 z"
       id="path3014-4"
       inkscape:connector-curvature="0"
       sodipodi:nodetypes="ccccc" />
    <path
       style="fill:none;stroke:#000000;stroke-width:1px;stroke-linecap:butt;stroke-linejoin:miter;stroke-opacity:1"
       d="m 224.08364,24.694651 34.33078,-9.844192 34.46477,120.192931 -33.64416,9.64731 z"
       id="path3014-0"
       inkscape:connector-curvature="0"
       sodipodi:nodetypes="ccccc" />
    <path
       style="fill:none;stroke:#000000;stroke-width:1px;stroke-linecap:butt;stroke-linejoin:miter;stroke-opacity:1"
       d="m 18.948332,89.313166 48.234059,165.620754 18.195312,-5.21742 5.11898,17.85201 37.420547,-10.73017 -5.80808,-20.25516 3.77639,-1.08286 5.61119,19.56854 95.09625,-27.26841 -5.02054,-17.50869 28.83785,-8.26912 5.21742,18.1953 50.80955,-14.5694 -5.11898,-17.852 28.49454,-8.17068 5.41431,18.88193 29.42602,-8.80931 L 310.5101,0.87921457 256.02261,16.874785 l 15.89714,54.144181 1.1813,4.119689 -28.83786,8.269124 -16.48778,-56.204027 -46.68986,13.388101 17.17688,58.60719 -33.30086,9.548867 L 147.68626,49.797411 99.966488,63.480835 116.74959,120.71479 88.255049,128.88547 70.982209,72.535015 18.456123,87.596628 z"
       id="path3041"
       inkscape:connector-curvature="0"
       sodipodi:nodetypes="ccccccccccccccccccccccccccccccccc" />
  </g>
</svg>
