<?xml version="1.0" encoding="UTF-8" standalone="no"?>
<!-- Created with Inkscape (http://www.inkscape.org/) -->

<svg
   xmlns:dc="http://purl.org/dc/elements/1.1/"
   xmlns:cc="http://creativecommons.org/ns#"
   xmlns:rdf="http://www.w3.org/1999/02/22-rdf-syntax-ns#"
   xmlns:svg="http://www.w3.org/2000/svg"
   xmlns="http://www.w3.org/2000/svg"
   xmlns:sodipodi="http://sodipodi.sourceforge.net/DTD/sodipodi-0.dtd"
   xmlns:inkscape="http://www.inkscape.org/namespaces/inkscape"
   width="744.09448819"
   height="1052.3622047"
   id="svg2"
   version="1.1"
   inkscape:version="0.48.2 r9819"
   sodipodi:docname="Lab-room-bonus-destination-and-start.svg">
  <defs
     id="defs4" />
  <sodipodi:namedview
     id="base"
     pagecolor="#ffffff"
     bordercolor="#666666"
     borderopacity="1.0"
     inkscape:pageopacity="0.0"
     inkscape:pageshadow="2"
     inkscape:zoom="2.8"
     inkscape:cx="161.14022"
     inkscape:cy="907.74949"
     inkscape:document-units="px"
     inkscape:current-layer="layer1"
     showgrid="false"
     inkscape:window-width="1600"
     inkscape:window-height="838"
     inkscape:window-x="-8"
     inkscape:window-y="-8"
     inkscape:window-maximized="1" />
  <metadata
     id="metadata7">
    <rdf:RDF>
      <cc:Work
         rdf:about="">
        <dc:format>image/svg+xml</dc:format>
        <dc:type
           rdf:resource="http://purl.org/dc/dcmitype/StillImage" />
        <dc:title></dc:title>
      </cc:Work>
    </rdf:RDF>
  </metadata>
  <g
     inkscape:label="Layer 1"
     inkscape:groupmode="layer"
     id="layer1">
    <path
       style="fill:none;stroke:#000000;stroke-width:1px;stroke-linecap:butt;stroke-linejoin:miter;stroke-opacity:1"
       d="m 47.857143,45.219324 40,0 0,59.999996 40.714287,0 0,-59.999996 40.71428,0 0,59.999996 40.71429,0 0,-59.28571 40.71429,0 0,57.14286 39.28571,0 0,-60.000003 50.04349,-0.169186 0,189.097749 -22.18635,0 0,-20 -40.71428,0 0,20 -41.42858,0 0,-21.42857 -40.71428,0 0,20 -91.42857,0 0,-20.71428 -10.000002,0 0,20.71428 -30.714286,0 0,-20 -20,0 -1.428571,-165.26785 z"
       id="path2985"
       inkscape:connector-curvature="0"
       sodipodi:nodetypes="cccccccccccccccccccccccccccccccc" />
    <path
       style="fill:none;stroke:#000000;stroke-width:1px;stroke-linecap:butt;stroke-linejoin:miter;stroke-opacity:1"
       d="m 87.378195,115.87989 0,-0.18166 0,50.76017 40.911175,0 0,-50.76017 -41.416251,0 z"
       id="path2987"
       inkscape:connector-curvature="0"
       sodipodi:nodetypes="ccccccc" />
    <path
       style="fill:none;stroke:#000000;stroke-width:1px;stroke-linecap:butt;stroke-linejoin:miter;stroke-opacity:1"
       d="m 168.94801,117.01632 0,-0.18166 0,50.76017 40.91118,0 0,-50.76017 -41.41625,0 z"
       id="path2987-1"
       inkscape:connector-curvature="0"
       sodipodi:nodetypes="ccccccc" />
    <path
       style="fill:none;stroke:#000000;stroke-width:1px;stroke-linecap:butt;stroke-linejoin:miter;stroke-opacity:1"
       d="m 251.02291,116.2587 0,-0.18166 0,50.76017 40.91118,0 0,-50.76017 -41.41625,0 z"
       id="path2987-7"
       inkscape:connector-curvature="0"
       sodipodi:nodetypes="ccccccc" />
    <path
       style="fill:none;stroke:#000000;stroke-width:1px;stroke-linecap:butt;stroke-linejoin:miter;stroke-opacity:1"
       d="m 89.642857,119.50504 35.714283,0 0,43.21428 -34.999997,0 z"
       id="path3014"
       inkscape:connector-curvature="0" />
    <path
       style="fill:none;stroke:#000000;stroke-width:1px;stroke-linecap:butt;stroke-linejoin:miter;stroke-opacity:1"
       d="m 170.42594,120.50555 35.71429,0 0,43.21428 -35,0 z"
       id="path3014-4"
       inkscape:connector-curvature="0" />
    <path
       style="fill:none;stroke:#000000;stroke-width:1px;stroke-linecap:butt;stroke-linejoin:miter;stroke-opacity:1"
       d="m 253.21428,120.04076 35.71429,0 0,43.21428 -35,0 z"
       id="path3014-0"
       inkscape:connector-curvature="0" />
    <path
       style="fill:none;stroke:#000000;stroke-width:1px;stroke-linecap:butt;stroke-linejoin:miter;stroke-opacity:1"
       d="m 38.214285,43.790752 0.714286,172.499998 18.928572,0 0,18.57143 38.928571,0 0,-21.07143 3.928576,0 0,20.35714 98.92857,0 0,-18.21428 30,0 0,18.92857 52.85714,0 0,-18.57143 29.64286,0 0,19.64286 30.71428,-0.35714 0,-196.428575 -56.78571,0.357143 0.35715,56.428572 0,4.28571 -30.00001,0 -0.35714,-58.571425 -48.57143,0 0.35714,61.071435 -34.64286,0 -0.35714,-61.428578 -49.64285,0 0.35714,59.642858 -29.642858,0 -1.071429,-58.928572 -54.642858,0 z"
       id="path3041"
       inkscape:connector-curvature="0"
       sodipodi:nodetypes="ccccccccccccccccccccccccccccccccc" />
  </g>
</svg>
