<?xml version="1.0" encoding="UTF-8" standalone="no"?>
<!-- Created with Inkscape (http://www.inkscape.org/) -->

<svg
   xmlns:dc="http://purl.org/dc/elements/1.1/"
   xmlns:cc="http://creativecommons.org/ns#"
   xmlns:rdf="http://www.w3.org/1999/02/22-rdf-syntax-ns#"
   xmlns:svg="http://www.w3.org/2000/svg"
   xmlns="http://www.w3.org/2000/svg"
   xmlns:sodipodi="http://sodipodi.sourceforge.net/DTD/sodipodi-0.dtd"
   xmlns:inkscape="http://www.inkscape.org/namespaces/inkscape"
   width="744.09448819"
   height="1052.3622047"
   id="svg2"
   version="1.1"
   inkscape:version="0.48.2 r9819"
   sodipodi:docname="Lab-room-peninsula.svg">
  <defs
     id="defs4" />
  <sodipodi:namedview
     id="base"
     pagecolor="#ffffff"
     bordercolor="#666666"
     borderopacity="1.0"
     inkscape:pageopacity="0.0"
     inkscape:pageshadow="2"
     inkscape:zoom="1.979899"
     inkscape:cx="172.00847"
     inkscape:cy="918.89432"
     inkscape:document-units="px"
     inkscape:current-layer="layer1"
     showgrid="false"
     inkscape:window-width="1600"
     inkscape:window-height="838"
     inkscape:window-x="-8"
     inkscape:window-y="-8"
     inkscape:window-maximized="1" />
  <metadata
     id="metadata7">
    <rdf:RDF>
      <cc:Work
         rdf:about="">
        <dc:format>image/svg+xml</dc:format>
        <dc:type
           rdf:resource="http://purl.org/dc/dcmitype/StillImage" />
        <dc:title></dc:title>
      </cc:Work>
    </rdf:RDF>
  </metadata>
  <g
     inkscape:label="Layer 1"
     inkscape:groupmode="layer"
     id="layer1">
    <path
       style="fill:none;stroke:#000000;stroke-width:1px;stroke-linecap:butt;stroke-linejoin:miter;stroke-opacity:1"
       d="m 35.094116,69.729263 39.462886,-6.533038 9.799557,59.194325 40.167581,-6.6497 -9.79956,-59.194325 40.16758,-6.649699 9.79956,59.194324 40.16758,-6.6497 -9.68289,-58.48963 40.16758,-6.649701 9.33291,56.375555 38.75819,-6.416376 -9.79956,-59.194333 49.34389,-8.340315 30.88457,186.55857 -21.88844,3.62361 -3.26652,-19.73144 -40.16757,6.6497 3.26652,19.73144 -40.87229,6.76636 -3.49984,-21.14083 -40.16757,6.6497 3.26651,19.73144 -90.20088,14.93266 -3.38318,-20.43613 -9.86572,1.63326 3.38318,20.43613 -30.30186,5.01644 -3.266519,-19.73144 -19.731444,3.26652 L 28.766448,70.867303 z"
       id="path2985"
       inkscape:connector-curvature="0"
       sodipodi:nodetypes="cccccccccccccccccccccccccccccccc" />
    <path
       style="fill:none;stroke:#000000;stroke-width:1px;stroke-linecap:butt;stroke-linejoin:miter;stroke-opacity:1"
       d="M 74.158793,63.723304 74.129123,63.544084 93.885974,182.88555 134.2478,176.20369 112.71737,46.148901 71.85725,52.91325 z"
       id="path2987"
       inkscape:connector-curvature="0"
       sodipodi:nodetypes="ccccccc" />
    <path
       style="fill:none;stroke:#000000;stroke-width:1px;stroke-linecap:butt;stroke-linejoin:miter;stroke-opacity:1"
       d="m 152.96284,40.310387 -0.0297,-0.179221 21.61292,130.553084 40.36183,-6.68186 L 193.295,33.449308 152.43488,40.213657 z"
       id="path2987-1"
       inkscape:connector-curvature="0"
       sodipodi:nodetypes="ccccccc" />
    <path
       style="fill:none;stroke:#000000;stroke-width:1px;stroke-linecap:butt;stroke-linejoin:miter;stroke-opacity:1"
       d="m 247.13438,106.63249 -0.0297,-0.17922 8.29045,50.07857 40.36184,-6.68186 -22.15247,-130.719735 -40.36182,6.681856 z"
       id="path2987-7"
       inkscape:connector-curvature="0"
       sodipodi:nodetypes="ccccccc" />
    <path
       style="fill:none;stroke:#000000;stroke-width:1px;stroke-linecap:butt;stroke-linejoin:miter;stroke-opacity:1"
       d="m 75.294039,56.714868 35.234721,-5.83307 20.2155,122.111932 -34.530027,5.7164 z"
       id="path3014"
       inkscape:connector-curvature="0"
       sodipodi:nodetypes="ccccc" />
    <path
       style="fill:none;stroke:#000000;stroke-width:1px;stroke-linecap:butt;stroke-linejoin:miter;stroke-opacity:1"
       d="m 154.94956,43.262233 35.23472,-5.833071 20.42173,123.357668 -34.53002,5.7164 z"
       id="path3014-4"
       inkscape:connector-curvature="0"
       sodipodi:nodetypes="ccccc" />
    <path
       style="fill:none;stroke:#000000;stroke-width:1px;stroke-linecap:butt;stroke-linejoin:miter;stroke-opacity:1"
       d="m 236.55032,29.282198 35.23472,-5.83307 20.42173,123.357662 -34.53002,5.71641 z"
       id="path3014-0"
       inkscape:connector-curvature="0"
       sodipodi:nodetypes="ccccc" />
    <path
       style="fill:none;stroke:#000000;stroke-width:1px;stroke-linecap:butt;stroke-linejoin:miter;stroke-opacity:1"
       d="m 25.347418,69.894803 28.878423,170.067037 18.674402,-3.09153 3.033196,18.32206 38.405841,-6.35805 -3.44151,-20.78849 3.87583,-0.64164 3.32485,20.08379 97.60017,-16.1576 -2.97487,-17.9697 29.59717,-4.89978 3.09153,18.6744 52.14738,-8.63294 -3.0332,-18.32206 29.24482,-4.84145 3.20819,19.3791 30.24352,-5.36878 -32.08188,-193.790968 -55.96487,9.626928 9.5686,55.612527 0.69997,4.228162 -29.59717,4.89978 -9.91858,-57.726607 -47.91922,7.932976 10.32689,60.193042 -34.17768,5.65808 -10.38522,-60.545391 -48.97626,8.107966 10.09357,58.783655 -29.244816,4.84145 -10.681607,-57.9623 -53.909123,8.924597 z"
       id="path3041"
       inkscape:connector-curvature="0"
       sodipodi:nodetypes="ccccccccccccccccccccccccccccccccc" />
  </g>
</svg>
