<?xml version="1.0" encoding="UTF-8" standalone="no"?>
<!-- Created with Inkscape (http://www.inkscape.org/) -->

<svg
   xmlns:dc="http://purl.org/dc/elements/1.1/"
   xmlns:cc="http://creativecommons.org/ns#"
   xmlns:rdf="http://www.w3.org/1999/02/22-rdf-syntax-ns#"
   xmlns:svg="http://www.w3.org/2000/svg"
   xmlns="http://www.w3.org/2000/svg"
   xmlns:sodipodi="http://sodipodi.sourceforge.net/DTD/sodipodi-0.dtd"
   xmlns:inkscape="http://www.inkscape.org/namespaces/inkscape"
   width="744.09448819"
   height="1052.3622047"
   id="svg2"
   version="1.1"
   inkscape:version="0.48.2 r9819"
   sodipodi:docname="Lab-room-inclined-16deg.svg">
  <defs
     id="defs4" />
  <sodipodi:namedview
     id="base"
     pagecolor="#ffffff"
     bordercolor="#666666"
     borderopacity="1.0"
     inkscape:pageopacity="0.0"
     inkscape:pageshadow="2"
     inkscape:zoom="1.4"
     inkscape:cx="190.81646"
     inkscape:cy="908.27365"
     inkscape:document-units="px"
     inkscape:current-layer="layer1"
     showgrid="false"
     inkscape:window-width="1600"
     inkscape:window-height="838"
     inkscape:window-x="-8"
     inkscape:window-y="-8"
     inkscape:window-maximized="1" />
  <metadata
     id="metadata7">
    <rdf:RDF>
      <cc:Work
         rdf:about="">
        <dc:format>image/svg+xml</dc:format>
        <dc:type
           rdf:resource="http://purl.org/dc/dcmitype/StillImage" />
        <dc:title />
      </cc:Work>
    </rdf:RDF>
  </metadata>
  <g
     inkscape:label="Layer 1"
     inkscape:groupmode="layer"
     id="layer1">
    <path
       style="fill:none;stroke:#000000;stroke-width:1px;stroke-linecap:butt;stroke-linejoin:miter;stroke-opacity:1"
       d="M 27.937034,88.123243 66.387502,77.097749 82.925742,134.77345 122.06283,123.55107 105.52459,65.875371 144.66166,54.652994 161.1999,112.32869 200.33699,101.10631 183.99564,44.117231 223.13272,32.894851 238.88343,87.824094 276.64728,76.995485 260.10904,19.31978 308.16729,5.3632927 360.2897,187.13572 l -21.32689,6.11538 -5.51275,-19.22523 -39.13708,11.22238 5.51275,19.22523 -39.82371,11.41926 -5.90651,-20.59846 -39.13708,11.22238 5.51275,19.22523 -87.88678,25.20113 -5.70963,-19.91184 -9.61262,2.75637 5.70963,19.91184 -29.52447,8.46601 -5.512747,-19.22524 -19.225234,5.51275 L 21.782105,89.981025 z"
       id="path2985"
       inkscape:connector-curvature="0"
       sodipodi:nodetypes="cccccccccccccccccccccccccccccccc" />
    <path
       style="fill:none;stroke:#000000;stroke-width:1px;stroke-linecap:butt;stroke-linejoin:miter;stroke-opacity:1"
       d="m 85.403799,145.15306 -0.05007,-0.17462 13.991399,48.7938 39.326344,-11.27664 -13.9914,-48.79381 -39.811853,11.41587 z"
       id="path2987"
       inkscape:connector-curvature="0"
       sodipodi:nodetypes="ccccccc" />
    <path
       style="fill:none;stroke:#000000;stroke-width:1px;stroke-linecap:butt;stroke-linejoin:miter;stroke-opacity:1"
       d="m 164.12698,123.76178 -0.0501,-0.17462 13.9914,48.7938 39.32635,-11.27665 -13.9914,-48.7938 -39.81186,11.41586 z"
       id="path2987-1"
       inkscape:connector-curvature="0"
       sodipodi:nodetypes="ccccccc" />
    <path
       style="fill:none;stroke:#000000;stroke-width:1px;stroke-linecap:butt;stroke-linejoin:miter;stroke-opacity:1"
       d="m 242.81361,100.4106 -0.0501,-0.17462 13.9914,48.7938 39.32635,-11.27665 -13.9914,-48.793803 -39.81186,11.415863 z"
       id="path2987-7"
       inkscape:connector-curvature="0"
       sodipodi:nodetypes="ccccccc" />
    <path
       style="fill:none;stroke:#000000;stroke-width:1px;stroke-linecap:butt;stroke-linejoin:miter;stroke-opacity:1"
       d="m 88.579959,148.01355 34.330771,-9.84419 11.91147,41.54023 -33.64416,9.64731 z"
       id="path3014"
       inkscape:connector-curvature="0" />
    <path
       style="fill:none;stroke:#000000;stroke-width:1px;stroke-linecap:butt;stroke-linejoin:miter;stroke-opacity:1"
       d="m 166.50942,126.70847 34.33078,-9.84419 11.91147,41.54023 -33.64416,9.64731 z"
       id="path3014-4"
       inkscape:connector-curvature="0" />
    <path
       style="fill:none;stroke:#000000;stroke-width:1px;stroke-linecap:butt;stroke-linejoin:miter;stroke-opacity:1"
       d="m 245.96257,103.44213 34.33078,-9.844197 11.91147,41.540237 -33.64416,9.6473 z"
       id="path3014-0"
       inkscape:connector-curvature="0" />
    <path
       style="fill:none;stroke:#000000;stroke-width:1px;stroke-linecap:butt;stroke-linejoin:miter;stroke-opacity:1"
       d="m 18.273957,89.407944 48.234059,165.620756 18.195311,-5.21742 5.11898,17.852 37.420543,-10.73017 -5.80807,-20.25515 3.77639,-1.08287 5.61119,19.56854 95.09624,-27.26841 -5.02054,-17.50869 28.83786,-8.26912 5.21742,18.19531 50.80954,-14.5694 -5.11898,-17.852 28.49455,-8.17068 5.4143,18.88192 29.42602,-8.8093 L 309.83572,0.97399192 255.34823,16.969563 l 15.89714,54.144181 1.1813,4.119689 -28.83786,8.269123 -16.48778,-56.204026 -46.68985,13.3881 17.17687,58.60719 -33.30085,9.54887 L 147.01188,49.892189 99.292112,63.575613 116.07522,120.80957 87.580673,128.98025 70.307833,72.629792 17.781747,87.691405 z"
       id="path3041"
       inkscape:connector-curvature="0"
       sodipodi:nodetypes="ccccccccccccccccccccccccccccccccc" />
  </g>
</svg>
