<?xml version="1.0" encoding="UTF-8" standalone="no"?>
<!-- Created with Inkscape (http://www.inkscape.org/) -->

<svg
   xmlns:dc="http://purl.org/dc/elements/1.1/"
   xmlns:cc="http://creativecommons.org/ns#"
   xmlns:rdf="http://www.w3.org/1999/02/22-rdf-syntax-ns#"
   xmlns:svg="http://www.w3.org/2000/svg"
   xmlns="http://www.w3.org/2000/svg"
   xmlns:sodipodi="http://sodipodi.sourceforge.net/DTD/sodipodi-0.dtd"
   xmlns:inkscape="http://www.inkscape.org/namespaces/inkscape"
   width="744.09448819"
   height="1052.3622047"
   id="svg2"
   version="1.1"
   inkscape:version="0.48.2 r9819"
   sodipodi:docname="Lab-room-inclined-9.4deg.svg">
  <defs
     id="defs4" />
  <sodipodi:namedview
     id="base"
     pagecolor="#ffffff"
     bordercolor="#666666"
     borderopacity="1.0"
     inkscape:pageopacity="0.0"
     inkscape:pageshadow="2"
     inkscape:zoom="1.4"
     inkscape:cx="-69.86041"
     inkscape:cy="825.00802"
     inkscape:document-units="px"
     inkscape:current-layer="layer1"
     showgrid="false"
     inkscape:window-width="1600"
     inkscape:window-height="838"
     inkscape:window-x="-8"
     inkscape:window-y="-8"
     inkscape:window-maximized="1" />
  <metadata
     id="metadata7">
    <rdf:RDF>
      <cc:Work
         rdf:about="">
        <dc:format>image/svg+xml</dc:format>
        <dc:type
           rdf:resource="http://purl.org/dc/dcmitype/StillImage" />
        <dc:title />
      </cc:Work>
    </rdf:RDF>
  </metadata>
  <g
     inkscape:label="Layer 1"
     inkscape:groupmode="layer"
     id="layer1">
    <path
       style="fill:none;stroke:#000000;stroke-width:1px;stroke-linecap:butt;stroke-linejoin:miter;stroke-opacity:1"
       d="m 34.694522,69.762116 39.462886,-6.533039 9.799557,59.194323 40.167585,-6.6497 -9.79956,-59.194323 40.16758,-6.649699 9.79955,59.194322 40.16759,-6.6497 -9.6829,-58.489628 40.16759,-6.6497 9.33291,56.375555 38.75819,-6.416377 -9.79956,-59.194332 49.34388,-8.340316 30.88457,186.558578 -21.88843,3.6236 -3.26652,-19.73144 -40.16758,6.6497 3.26652,19.73144 -40.87228,6.76637 -3.49984,-21.14083 -40.16758,6.64969 3.26652,19.73145 -90.20088,14.93266 -3.38318,-20.43614 -9.86572,1.63326 3.38318,20.43614 -30.301864,5.01644 -3.26652,-19.73145 -19.731443,3.26652 L 28.366854,70.900156 z"
       id="path2985"
       inkscape:connector-curvature="0"
       sodipodi:nodetypes="cccccccccccccccccccccccccccccccc" />
    <path
       style="fill:none;stroke:#000000;stroke-width:1px;stroke-linecap:butt;stroke-linejoin:miter;stroke-opacity:1"
       d="m 85.225596,133.01905 -0.02967,-0.17922 8.290454,50.07857 40.36183,-6.68186 -8.29046,-50.07857 -40.860117,6.76435 z"
       id="path2987"
       inkscape:connector-curvature="0"
       sodipodi:nodetypes="ccccccc" />
    <path
       style="fill:none;stroke:#000000;stroke-width:1px;stroke-linecap:butt;stroke-linejoin:miter;stroke-opacity:1"
       d="m 165.88571,120.81775 -0.0297,-0.17922 8.29046,50.07857 40.36183,-6.68186 -8.29046,-50.07857 -40.86011,6.76435 z"
       id="path2987-1"
       inkscape:connector-curvature="0"
       sodipodi:nodetypes="ccccccc" />
    <path
       style="fill:none;stroke:#000000;stroke-width:1px;stroke-linecap:butt;stroke-linejoin:miter;stroke-opacity:1"
       d="m 246.73479,106.66534 -0.0297,-0.17922 8.29045,50.07857 40.36183,-6.68186 -8.29045,-50.078566 -40.86012,6.764346 z"
       id="path2987-7"
       inkscape:connector-curvature="0"
       sodipodi:nodetypes="ccccccc" />
    <path
       style="fill:none;stroke:#000000;stroke-width:1px;stroke-linecap:butt;stroke-linejoin:miter;stroke-opacity:1"
       d="m 88.05193,136.22564 35.23472,-5.83307 7.05801,42.63401 -34.530022,5.71641 z"
       id="path3014"
       inkscape:connector-curvature="0" />
    <path
       style="fill:none;stroke:#000000;stroke-width:1px;stroke-linecap:butt;stroke-linejoin:miter;stroke-opacity:1"
       d="m 167.91368,124.01874 35.23472,-5.83307 7.05802,42.63401 -34.53003,5.71641 z"
       id="path3014-4"
       inkscape:connector-curvature="0" />
    <path
       style="fill:none;stroke:#000000;stroke-width:1px;stroke-linecap:butt;stroke-linejoin:miter;stroke-opacity:1"
       d="m 249.51444,110.03871 35.23472,-5.83307 7.05802,42.634 -34.53003,5.71641 z"
       id="path3014-0"
       inkscape:connector-curvature="0" />
    <path
       style="fill:none;stroke:#000000;stroke-width:1px;stroke-linecap:butt;stroke-linejoin:miter;stroke-opacity:1"
       d="m 24.947823,69.927656 28.878423,170.067034 18.674403,-3.09153 3.033196,18.32206 38.405845,-6.35805 -3.44151,-20.78848 3.87582,-0.64164 3.32485,20.08379 97.60017,-16.15761 -2.97486,-17.9697 29.59716,-4.89978 3.09153,18.6744 52.14738,-8.63294 -3.03319,-18.32206 29.24482,-4.84145 3.20819,19.3791 30.24352,-5.36878 -32.08189,-193.790965 -55.96487,9.626928 9.56861,55.612526 0.69997,4.228162 -29.59718,4.899781 -9.91858,-57.726607 -47.91922,7.932975 10.3269,60.19305 -34.17768,5.65808 L 157.3744,45.470551 108.39815,53.578518 118.49172,112.36217 89.2469,117.20362 78.565293,59.241322 24.65617,68.16592 z"
       id="path3041"
       inkscape:connector-curvature="0"
       sodipodi:nodetypes="ccccccccccccccccccccccccccccccccc" />
  </g>
</svg>
